<svg width="370" height="65" viewBox="0 0 370 65" fill="none" xmlns="http://www.w3.org/2000/svg">
<path d="M1.584 15.88L8.176 17.16L14.704 15.88V53H1.584V15.88ZM8.112 12.872C5.85067 12.872 4.016 12.3173 2.608 11.208C1.2 10.056 0.496 8.49867 0.496 6.536C0.496 4.616 1.2 3.08 2.608 1.928C4.016 0.775997 5.85067 0.199997 8.112 0.199997C10.4587 0.199997 12.3147 0.775997 13.68 1.928C15.088 3.08 15.792 4.616 15.792 6.536C15.792 8.49867 15.088 10.056 13.68 11.208C12.3147 12.3173 10.4587 12.872 8.112 12.872Z" fill="white"/>
<path d="M45.3205 46.792L40.8405 46.728L53.5125 16.456H67.4645L50.3765 53H35.4645L18.3765 16.456H32.8405L45.3205 46.792ZM90.3365 54.024C85.8992 54.024 81.9312 53.2133 78.4325 51.592C74.9765 49.9707 72.2458 47.7093 70.2405 44.808C68.2352 41.864 67.2325 38.4507 67.2325 34.568C67.2325 30.7707 68.1925 27.4427 70.1125 24.584C72.0325 21.6827 74.6565 19.4213 77.9845 17.8C81.3552 16.1787 85.1525 15.368 89.3765 15.368C93.7712 15.368 97.5045 16.328 100.576 18.248C103.691 20.1253 106.081 22.792 107.745 26.248C109.451 29.704 110.305 33.7787 110.305 38.472H77.7925V30.6H102.944L98.6565 33.352C98.4858 31.4747 98.0165 29.896 97.2485 28.616C96.4805 27.2933 95.4565 26.2907 94.1765 25.608C92.9392 24.9253 91.4458 24.584 89.6965 24.584C87.7765 24.584 86.1338 24.968 84.7685 25.736C83.4032 26.504 82.3365 27.5707 81.5685 28.936C80.8005 30.2587 80.4165 31.816 80.4165 33.608C80.4165 35.912 80.9285 37.8747 81.9525 39.496C83.0192 41.0747 84.5552 42.2907 86.5605 43.144C88.6085 43.9973 91.1045 44.424 94.0485 44.424C96.7365 44.424 99.4032 44.0827 102.049 43.4C104.737 42.6747 107.169 41.672 109.345 40.392V48.712C106.827 50.4187 103.947 51.7413 100.705 52.68C97.5045 53.576 94.0485 54.024 90.3365 54.024ZM113.981 16.456H127.101L129.469 31.048V53H116.413V29.064L113.981 16.456ZM142.909 15.368C146.408 15.368 149.394 16.072 151.869 17.48C154.344 18.888 156.221 20.872 157.501 23.432C158.824 25.992 159.485 29.0213 159.485 32.52V53H146.429V34.44C146.429 31.7093 145.725 29.6187 144.317 28.168C142.952 26.7173 140.968 25.992 138.365 25.992C136.573 25.992 134.994 26.376 133.629 27.144C132.306 27.912 131.282 29 130.557 30.408C129.832 31.816 129.469 33.48 129.469 35.4L125.437 33.288C125.949 29.4053 127.037 26.1413 128.701 23.496C130.365 20.808 132.413 18.7813 134.845 17.416C137.277 16.0507 139.965 15.368 142.909 15.368ZM162.447 26.12V20.424L169.871 17.416L175.503 6.6H182.927V16.456H198.287V26.12H182.927V36.872C182.927 39.5173 183.46 41.3733 184.527 42.44C185.593 43.5067 187.535 44.04 190.351 44.04C192.143 44.04 193.721 43.8907 195.087 43.592C196.495 43.2507 197.775 42.824 198.927 42.312V52.168C197.647 52.6373 195.961 53.064 193.871 53.448C191.78 53.832 189.625 54.024 187.407 54.024C183.353 54.024 180.025 53.4053 177.423 52.168C174.863 50.9307 172.964 49.16 171.727 46.856C170.489 44.5093 169.871 41.7787 169.871 38.664V26.12H162.447ZM224.844 54.024C220.151 54.024 216.055 53.2347 212.556 51.656C209.057 50.0347 206.327 47.7733 204.364 44.872C202.401 41.928 201.42 38.5573 201.42 34.76C201.42 30.8773 202.401 27.4853 204.364 24.584C206.327 21.6827 209.057 19.4213 212.556 17.8C216.055 16.1787 220.151 15.368 224.844 15.368C229.495 15.368 233.569 16.1787 237.068 17.8C240.609 19.4213 243.361 21.6827 245.324 24.584C247.287 27.4853 248.268 30.8773 248.268 34.76C248.268 38.5573 247.287 41.928 245.324 44.872C243.361 47.7733 240.609 50.0347 237.068 51.656C233.569 53.2347 229.495 54.024 224.844 54.024ZM224.844 44.36C226.977 44.36 228.791 43.976 230.284 43.208C231.82 42.44 232.993 41.3307 233.804 39.88C234.615 38.4293 235.02 36.7227 235.02 34.76C235.02 32.712 234.615 30.984 233.804 29.576C232.993 28.1253 231.82 27.016 230.284 26.248C228.791 25.48 226.977 25.096 224.844 25.096C222.711 25.096 220.876 25.48 219.34 26.248C217.804 27.016 216.631 28.1253 215.82 29.576C215.009 30.984 214.604 32.6907 214.604 34.696C214.604 36.7013 215.009 38.4293 215.82 39.88C216.631 41.3307 217.804 42.44 219.34 43.208C220.876 43.976 222.711 44.36 224.844 44.36ZM253.772 3.72H266.892V53H253.772V3.72ZM295.844 54.024C291.151 54.024 287.055 53.2347 283.556 51.656C280.057 50.0347 277.327 47.7733 275.364 44.872C273.401 41.928 272.42 38.5573 272.42 34.76C272.42 30.8773 273.401 27.4853 275.364 24.584C277.327 21.6827 280.057 19.4213 283.556 17.8C287.055 16.1787 291.151 15.368 295.844 15.368C300.495 15.368 304.569 16.1787 308.068 17.8C311.609 19.4213 314.361 21.6827 316.324 24.584C318.287 27.4853 319.268 30.8773 319.268 34.76C319.268 38.5573 318.287 41.928 316.324 44.872C314.361 47.7733 311.609 50.0347 308.068 51.656C304.569 53.2347 300.495 54.024 295.844 54.024ZM295.844 44.36C297.977 44.36 299.791 43.976 301.284 43.208C302.82 42.44 303.993 41.3307 304.804 39.88C305.615 38.4293 306.02 36.7227 306.02 34.76C306.02 32.712 305.615 30.984 304.804 29.576C303.993 28.1253 302.82 27.016 301.284 26.248C299.791 25.48 297.977 25.096 295.844 25.096C293.711 25.096 291.876 25.48 290.34 26.248C288.804 27.016 287.631 28.1253 286.82 29.576C286.009 30.984 285.604 32.6907 285.604 34.696C285.604 36.7013 286.009 38.4293 286.82 39.88C287.631 41.3307 288.804 42.44 290.34 43.208C291.876 43.976 293.711 44.36 295.844 44.36ZM356.708 43.784V37.576L357.156 36.04V27.08L356.708 25.736V16.456H369.764V43.272C369.764 47.752 368.718 51.592 366.628 54.792C364.537 57.992 361.614 60.424 357.86 62.088C354.148 63.752 349.753 64.584 344.676 64.584C341.305 64.584 338.169 64.136 335.268 63.24C332.409 62.3867 329.55 61.1067 326.692 59.4V49.544C329.337 51.5067 332.11 52.9147 335.012 53.768C337.956 54.664 340.9 55.112 343.844 55.112C348.025 55.112 351.204 54.216 353.38 52.424C355.598 50.632 356.708 47.752 356.708 43.784ZM341.028 49.16C337.572 49.16 334.5 48.456 331.812 47.048C329.124 45.64 326.99 43.6773 325.411 41.16C323.876 38.6 323.108 35.6347 323.108 32.264C323.108 28.8507 323.876 25.8853 325.411 23.368C326.99 20.8507 329.124 18.888 331.812 17.48C334.5 16.072 337.572 15.368 341.028 15.368C343.588 15.368 345.934 15.7733 348.068 16.584C350.201 17.352 352.1 18.3973 353.764 19.72C355.428 21 356.814 22.408 357.924 23.944C359.076 25.4373 359.95 26.9307 360.548 28.424C361.145 29.9173 361.444 31.24 361.444 32.392C361.444 33.9707 360.974 35.72 360.036 37.64C359.14 39.56 357.817 41.3947 356.068 43.144C354.318 44.8933 352.164 46.344 349.604 47.496C347.086 48.6053 344.228 49.16 341.028 49.16ZM345.444 40.264C347.961 40.264 350.201 39.6027 352.164 38.28C354.126 36.9573 355.79 34.952 357.156 32.264C355.748 29.5333 354.062 27.528 352.1 26.248C350.137 24.9253 347.918 24.264 345.444 24.264C343.566 24.264 341.924 24.584 340.516 25.224C339.15 25.864 338.105 26.8027 337.38 28.04C336.654 29.2347 336.292 30.6427 336.292 32.264C336.292 33.8427 336.654 35.2507 337.38 36.488C338.105 37.6827 339.15 38.6213 340.516 39.304C341.881 39.944 343.524 40.264 345.444 40.264Z" fill="url(#paint0_linear_67_25)"/>
<defs>
<linearGradient id="paint0_linear_67_25" x1="-2" y1="37.9985" x2="374" y2="37.9985" gradientUnits="userSpaceOnUse">
<stop stop-color="#1E90FF"/>
<stop offset="1" stop-color="#125699"/>
</linearGradient>
</defs>
</svg>
