<svg width="382" height="275" viewBox="0 0 382 275" fill="none" xmlns="http://www.w3.org/2000/svg">
<path d="M21 14.5H277.174C281.985 14.5 286.62 16.2785 290.193 19.4834L290.536 19.7979L362.362 87.373C366.279 91.0582 368.5 96.1982 368.5 101.576V254C368.5 264.77 359.77 273.5 349 273.5H21C10.2304 273.5 1.5 264.77 1.5 254V34C1.5 23.2304 10.2304 14.5 21 14.5Z" fill="#005EB9" fill-opacity="0.89" stroke="#003C76" stroke-width="3"/>
<path d="M275.82 121.695C268.701 121.964 262.916 116.009 263.392 108.9L269.066 24.2794C269.435 15.0801 280.394 10.5153 287.184 16.7321L305.5 33.5L340 67L364.376 91.3764C366.393 93.3927 367.625 96.061 367.853 98.9033L368.395 105.673C368.94 112.477 363.708 118.365 356.888 118.623L275.82 121.695Z" fill="#003C76" fill-opacity="0.89"/>
</svg>
