<svg width="732" height="122" viewBox="0 0 732 122" fill="none" xmlns="http://www.w3.org/2000/svg">
<path d="M465.858 2C479.916 2 491.312 13.3958 491.312 27.4531C491.312 39.3012 500.917 48.906 512.765 48.9062H686.255C690.737 48.9062 694.945 46.7436 697.554 43.0986L697.793 42.7715C708.028 29.0625 730 36.2507 730 53.5146V90.2969C730 106.701 716.702 120 700.298 120H364.59C350.948 120 338.833 111.356 334.367 98.5156L334.16 97.9004L332.38 92.4307C328.628 80.8995 317.88 73.0938 305.754 73.0938H37.3779C33.815 73.0939 30.5217 74.9596 28.6865 77.9941L28.5137 78.291C21.3905 91.0196 2 85.9631 2 71.377V27.5801C2 13.4527 13.4527 2 27.5801 2H465.858Z" stroke="#002F5C" stroke-width="4"/>
</svg>
