<svg width="232" height="41" viewBox="0 0 232 41" fill="none" xmlns="http://www.w3.org/2000/svg">
<path d="M1.24 9.8L5.36 10.6L9.44 9.8V33H1.24V9.8ZM5.32 7.92C3.90667 7.92 2.76 7.57333 1.88 6.88C1 6.16 0.56 5.18667 0.56 3.96C0.56 2.76 1 1.8 1.88 1.08C2.76 0.359998 3.90667 -1.90735e-06 5.32 -1.90735e-06C6.78667 -1.90735e-06 7.94667 0.359998 8.8 1.08C9.68 1.8 10.12 2.76 10.12 3.96C10.12 5.18667 9.68 6.16 8.8 6.88C7.94667 7.57333 6.78667 7.92 5.32 7.92Z" fill="white"/>
<path d="M28.5753 29.12L25.7753 29.08L33.6953 10.16H42.4153L31.7353 33H22.4153L11.7353 10.16H20.7753L28.5753 29.12ZM56.7103 33.64C53.937 33.64 51.457 33.1333 49.2703 32.12C47.1103 31.1067 45.4036 29.6933 44.1503 27.88C42.897 26.04 42.2703 23.9067 42.2703 21.48C42.2703 19.1067 42.8703 17.0267 44.0703 15.24C45.2703 13.4267 46.9103 12.0133 48.9903 11C51.097 9.98667 53.4703 9.48 56.1103 9.48C58.857 9.48 61.1903 10.08 63.1103 11.28C65.057 12.4533 66.5503 14.12 67.5903 16.28C68.657 18.44 69.1903 20.9867 69.1903 23.92H48.8703V19H64.5903L61.9103 20.72C61.8036 19.5467 61.5103 18.56 61.0303 17.76C60.5503 16.9333 59.9103 16.3067 59.1103 15.88C58.337 15.4533 57.4036 15.24 56.3103 15.24C55.1103 15.24 54.0836 15.48 53.2303 15.96C52.377 16.44 51.7103 17.1067 51.2303 17.96C50.7503 18.7867 50.5103 19.76 50.5103 20.88C50.5103 22.32 50.8303 23.5467 51.4703 24.56C52.137 25.5467 53.097 26.3067 54.3503 26.84C55.6303 27.3733 57.1903 27.64 59.0303 27.64C60.7103 27.64 62.377 27.4267 64.0303 27C65.7103 26.5467 67.2303 25.92 68.5903 25.12V30.32C67.017 31.3867 65.217 32.2133 63.1903 32.8C61.1903 33.36 59.0303 33.64 56.7103 33.64ZM71.4881 10.16H79.6881L81.1681 19.28V33H73.0081V18.04L71.4881 10.16ZM89.5681 9.48C91.7548 9.48 93.6215 9.92 95.1681 10.8C96.7148 11.68 97.8881 12.92 98.6881 14.52C99.5148 16.12 99.9281 18.0133 99.9281 20.2V33H91.7681V21.4C91.7681 19.6933 91.3281 18.3867 90.4481 17.48C89.5948 16.5733 88.3548 16.12 86.7281 16.12C85.6081 16.12 84.6215 16.36 83.7681 16.84C82.9415 17.32 82.3015 18 81.8481 18.88C81.3948 19.76 81.1681 20.8 81.1681 22L78.6481 20.68C78.9681 18.2533 79.6481 16.2133 80.6881 14.56C81.7281 12.88 83.0081 11.6133 84.5281 10.76C86.0481 9.90667 87.7281 9.48 89.5681 9.48ZM101.779 16.2V12.64L106.419 10.76L109.939 4H114.579V10.16H124.179V16.2H114.579V22.92C114.579 24.5733 114.912 25.7333 115.579 26.4C116.246 27.0667 117.459 27.4 119.219 27.4C120.339 27.4 121.326 27.3067 122.179 27.12C123.059 26.9067 123.859 26.64 124.579 26.32V32.48C123.779 32.7733 122.726 33.04 121.419 33.28C120.112 33.52 118.766 33.64 117.379 33.64C114.846 33.64 112.766 33.2533 111.139 32.48C109.539 31.7067 108.352 30.6 107.579 29.16C106.806 27.6933 106.419 25.9867 106.419 24.04V16.2H101.779ZM140.778 33.64C137.844 33.64 135.284 33.1467 133.098 32.16C130.911 31.1467 129.204 29.7333 127.978 27.92C126.751 26.08 126.138 23.9733 126.138 21.6C126.138 19.1733 126.751 17.0533 127.978 15.24C129.204 13.4267 130.911 12.0133 133.098 11C135.284 9.98667 137.844 9.48 140.778 9.48C143.684 9.48 146.231 9.98667 148.418 11C150.631 12.0133 152.351 13.4267 153.578 15.24C154.804 17.0533 155.418 19.1733 155.418 21.6C155.418 23.9733 154.804 26.08 153.578 27.92C152.351 29.7333 150.631 31.1467 148.418 32.16C146.231 33.1467 143.684 33.64 140.778 33.64ZM140.778 27.6C142.111 27.6 143.244 27.36 144.178 26.88C145.138 26.4 145.871 25.7067 146.378 24.8C146.884 23.8933 147.138 22.8267 147.138 21.6C147.138 20.32 146.884 19.24 146.378 18.36C145.871 17.4533 145.138 16.76 144.178 16.28C143.244 15.8 142.111 15.56 140.778 15.56C139.444 15.56 138.298 15.8 137.338 16.28C136.378 16.76 135.644 17.4533 135.138 18.36C134.631 19.24 134.378 20.3067 134.378 21.56C134.378 22.8133 134.631 23.8933 135.138 24.8C135.644 25.7067 136.378 26.4 137.338 26.88C138.298 27.36 139.444 27.6 140.778 27.6ZM158.857 2.2H167.057V33H158.857V2.2ZM185.153 33.64C182.219 33.64 179.659 33.1467 177.473 32.16C175.286 31.1467 173.579 29.7333 172.353 27.92C171.126 26.08 170.513 23.9733 170.513 21.6C170.513 19.1733 171.126 17.0533 172.353 15.24C173.579 13.4267 175.286 12.0133 177.473 11C179.659 9.98667 182.219 9.48 185.153 9.48C188.059 9.48 190.606 9.98667 192.793 11C195.006 12.0133 196.726 13.4267 197.953 15.24C199.179 17.0533 199.793 19.1733 199.793 21.6C199.793 23.9733 199.179 26.08 197.953 27.92C196.726 29.7333 195.006 31.1467 192.793 32.16C190.606 33.1467 188.059 33.64 185.153 33.64ZM185.153 27.6C186.486 27.6 187.619 27.36 188.553 26.88C189.513 26.4 190.246 25.7067 190.753 24.8C191.259 23.8933 191.513 22.8267 191.513 21.6C191.513 20.32 191.259 19.24 190.753 18.36C190.246 17.4533 189.513 16.76 188.553 16.28C187.619 15.8 186.486 15.56 185.153 15.56C183.819 15.56 182.673 15.8 181.713 16.28C180.753 16.76 180.019 17.4533 179.513 18.36C179.006 19.24 178.753 20.3067 178.753 21.56C178.753 22.8133 179.006 23.8933 179.513 24.8C180.019 25.7067 180.753 26.4 181.713 26.88C182.673 27.36 183.819 27.6 185.153 27.6ZM223.192 27.24V23.36L223.472 22.4V16.8L223.192 15.96V10.16H231.352V26.92C231.352 29.72 230.699 32.12 229.392 34.12C228.086 36.12 226.259 37.64 223.912 38.68C221.592 39.72 218.846 40.24 215.672 40.24C213.566 40.24 211.606 39.96 209.792 39.4C208.006 38.8667 206.219 38.0667 204.432 37V30.84C206.086 32.0667 207.819 32.9467 209.632 33.48C211.472 34.04 213.312 34.32 215.152 34.32C217.766 34.32 219.752 33.76 221.112 32.64C222.499 31.52 223.192 29.72 223.192 27.24ZM213.392 30.6C211.232 30.6 209.312 30.16 207.632 29.28C205.952 28.4 204.619 27.1733 203.632 25.6C202.672 24 202.192 22.1467 202.192 20.04C202.192 17.9067 202.672 16.0533 203.632 14.48C204.619 12.9067 205.952 11.68 207.632 10.8C209.312 9.92 211.232 9.48 213.392 9.48C214.992 9.48 216.459 9.73333 217.792 10.24C219.126 10.72 220.312 11.3733 221.352 12.2C222.392 13 223.259 13.88 223.952 14.84C224.672 15.7733 225.219 16.7067 225.592 17.64C225.966 18.5733 226.152 19.4 226.152 20.12C226.152 21.1067 225.859 22.2 225.272 23.4C224.712 24.6 223.886 25.7467 222.792 26.84C221.699 27.9333 220.352 28.84 218.752 29.56C217.179 30.2533 215.392 30.6 213.392 30.6ZM216.152 25.04C217.726 25.04 219.126 24.6267 220.352 23.8C221.579 22.9733 222.619 21.72 223.472 20.04C222.592 18.3333 221.539 17.08 220.312 16.28C219.086 15.4533 217.699 15.04 216.152 15.04C214.979 15.04 213.952 15.24 213.072 15.64C212.219 16.04 211.566 16.6267 211.112 17.4C210.659 18.1467 210.432 19.0267 210.432 20.04C210.432 21.0267 210.659 21.9067 211.112 22.68C211.566 23.4267 212.219 24.0133 213.072 24.44C213.926 24.84 214.952 25.04 216.152 25.04Z" fill="url(#paint0_linear_51_3)"/>
<defs>
<linearGradient id="paint0_linear_51_3" x1="-1" y1="18" x2="234" y2="18" gradientUnits="userSpaceOnUse">
<stop stop-color="#1E90FF"/>
<stop offset="1" stop-color="#125699"/>
</linearGradient>
</defs>
</svg>
