<svg width="130" height="24" viewBox="0 0 130 24" fill="none" xmlns="http://www.w3.org/2000/svg">
<path d="M0.656 5.32L2.216 5.608L3.776 5.32V19H0.656V5.32ZM2.216 3.616C1.624 3.616 1.136 3.456 0.752 3.136C0.368 2.8 0.176 2.368 0.176 1.84C0.176 1.312 0.368 0.888 0.752 0.568C1.136 0.231999 1.624 0.0639992 2.216 0.0639992C2.824 0.0639992 3.312 0.231999 3.68 0.568C4.064 0.888 4.256 1.312 4.256 1.84C4.256 2.368 4.064 2.8 3.68 3.136C3.312 3.456 2.824 3.616 2.216 3.616Z" fill="#1E90FF"/>
<path d="M14.6619 17.608H13.4619L19.0299 5.416H22.3659L15.7419 19H12.2379L5.61388 5.416H9.04588L14.6619 17.608ZM30.9001 19.336C29.3161 19.336 27.9081 19.04 26.6761 18.448C25.4441 17.84 24.4761 17 23.7721 15.928C23.0681 14.856 22.7161 13.608 22.7161 12.184C22.7161 10.776 23.0441 9.544 23.7001 8.488C24.3721 7.416 25.2921 6.584 26.4601 5.992C27.6441 5.384 28.9961 5.08 30.5161 5.08C32.0361 5.08 33.3481 5.424 34.4521 6.112C35.5721 6.784 36.4361 7.736 37.0441 8.968C37.6521 10.2 37.9561 11.648 37.9561 13.312H25.1641V10.936H36.3961L34.8361 11.824C34.7881 10.928 34.5721 10.16 34.1881 9.52C33.8201 8.88 33.3161 8.392 32.6761 8.056C32.0521 7.704 31.3081 7.528 30.4441 7.528C29.5321 7.528 28.7321 7.712 28.0441 8.08C27.3721 8.448 26.8441 8.968 26.4601 9.64C26.0761 10.296 25.8841 11.08 25.8841 11.992C25.8841 13 26.1081 13.872 26.5561 14.608C27.0201 15.344 27.6681 15.912 28.5001 16.312C29.3481 16.696 30.3481 16.888 31.5001 16.888C32.5401 16.888 33.6041 16.728 34.6921 16.408C35.7801 16.072 36.7401 15.608 37.5721 15.016V17.272C36.7401 17.912 35.7241 18.416 34.5241 18.784C33.3401 19.152 32.1321 19.336 30.9001 19.336ZM39.8752 5.416H42.9952L43.8112 10.312V19H40.6912V9.856L39.8752 5.416ZM49.2112 5.08C50.4912 5.08 51.5792 5.336 52.4752 5.848C53.3712 6.36 54.0512 7.096 54.5152 8.056C54.9952 9 55.2352 10.144 55.2352 11.488V19H52.1152V11.992C52.1152 10.568 51.7792 9.496 51.1072 8.776C50.4512 8.04 49.4832 7.672 48.2032 7.672C47.3232 7.672 46.5472 7.872 45.8752 8.272C45.2192 8.656 44.7072 9.2 44.3392 9.904C43.9872 10.608 43.8112 11.432 43.8112 12.376L42.7072 11.776C42.8512 10.368 43.2192 9.168 43.8112 8.176C44.4032 7.184 45.1632 6.424 46.0912 5.896C47.0192 5.352 48.0592 5.08 49.2112 5.08ZM56.6356 7.816V6.4L59.5396 5.656L60.8356 1.864H62.6596V5.416H68.9716V7.816H62.6596V13.696C62.6596 14.832 62.8996 15.632 63.3796 16.096C63.8756 16.544 64.6756 16.768 65.7796 16.768C66.4836 16.768 67.1076 16.696 67.6516 16.552C68.1956 16.392 68.7156 16.168 69.2116 15.88V18.448C68.7956 18.656 68.2036 18.856 67.4356 19.048C66.6836 19.24 65.9076 19.336 65.1076 19.336C63.7796 19.336 62.7076 19.12 61.8916 18.688C61.0756 18.24 60.4756 17.632 60.0916 16.864C59.7236 16.08 59.5396 15.184 59.5396 14.176V7.816H56.6356ZM78.5274 19.336C76.8794 19.336 75.4314 19.04 74.1834 18.448C72.9514 17.84 71.9834 17 71.2794 15.928C70.5914 14.856 70.2474 13.616 70.2474 12.208C70.2474 10.784 70.5914 9.544 71.2794 8.488C71.9834 7.416 72.9514 6.584 74.1834 5.992C75.4314 5.384 76.8794 5.08 78.5274 5.08C80.1754 5.08 81.6154 5.384 82.8474 5.992C84.0954 6.584 85.0634 7.416 85.7514 8.488C86.4554 9.544 86.8074 10.784 86.8074 12.208C86.8074 13.616 86.4554 14.856 85.7514 15.928C85.0634 17 84.0954 17.84 82.8474 18.448C81.6154 19.04 80.1754 19.336 78.5274 19.336ZM78.5274 16.888C79.5834 16.888 80.4874 16.696 81.2394 16.312C82.0074 15.928 82.5994 15.392 83.0154 14.704C83.4314 14 83.6394 13.168 83.6394 12.208C83.6394 11.248 83.4314 10.424 83.0154 9.736C82.5994 9.032 82.0074 8.488 81.2394 8.104C80.4874 7.72 79.5834 7.528 78.5274 7.528C77.4874 7.528 76.5834 7.72 75.8154 8.104C75.0474 8.488 74.4554 9.032 74.0394 9.736C73.6234 10.424 73.4154 11.248 73.4154 12.208C73.4154 13.168 73.6234 14 74.0394 14.704C74.4554 15.392 75.0474 15.928 75.8154 16.312C76.5834 16.696 77.4874 16.888 78.5274 16.888ZM89.3435 0.519999H92.4635V19H89.3435V0.519999ZM103.277 19.336C101.629 19.336 100.181 19.04 98.9334 18.448C97.7014 17.84 96.7334 17 96.0294 15.928C95.3414 14.856 94.9974 13.616 94.9974 12.208C94.9974 10.784 95.3414 9.544 96.0294 8.488C96.7334 7.416 97.7014 6.584 98.9334 5.992C100.181 5.384 101.629 5.08 103.277 5.08C104.925 5.08 106.365 5.384 107.597 5.992C108.845 6.584 109.813 7.416 110.501 8.488C111.205 9.544 111.557 10.784 111.557 12.208C111.557 13.616 111.205 14.856 110.501 15.928C109.813 17 108.845 17.84 107.597 18.448C106.365 19.04 104.925 19.336 103.277 19.336ZM103.277 16.888C104.333 16.888 105.237 16.696 105.989 16.312C106.757 15.928 107.349 15.392 107.765 14.704C108.181 14 108.389 13.168 108.389 12.208C108.389 11.248 108.181 10.424 107.765 9.736C107.349 9.032 106.757 8.488 105.989 8.104C105.237 7.72 104.333 7.528 103.277 7.528C102.237 7.528 101.333 7.72 100.565 8.104C99.7974 8.488 99.2054 9.032 98.7894 9.736C98.3734 10.424 98.1654 11.248 98.1654 12.208C98.1654 13.168 98.3734 14 98.7894 14.704C99.2054 15.392 99.7974 15.928 100.565 16.312C101.333 16.696 102.237 16.888 103.277 16.888ZM126.43 15.664V13.264L126.549 12.832V10.216L126.43 9.736V5.416H129.55V15.376C129.55 17.12 129.182 18.576 128.446 19.744C127.71 20.928 126.702 21.816 125.422 22.408C124.142 23 122.67 23.296 121.006 23.296C119.79 23.296 118.67 23.136 117.646 22.816C116.622 22.496 115.63 22.008 114.67 21.352V18.76C115.646 19.528 116.654 20.064 117.694 20.368C118.734 20.688 119.774 20.848 120.814 20.848C122.638 20.848 124.03 20.4 124.99 19.504C125.95 18.608 126.43 17.328 126.43 15.664ZM119.902 17.944C118.654 17.944 117.534 17.68 116.542 17.152C115.55 16.608 114.766 15.856 114.19 14.896C113.614 13.936 113.326 12.808 113.326 11.512C113.326 10.216 113.614 9.088 114.19 8.128C114.766 7.168 115.55 6.424 116.542 5.896C117.534 5.352 118.654 5.08 119.902 5.08C120.83 5.08 121.686 5.224 122.47 5.512C123.27 5.8 123.982 6.184 124.606 6.664C125.246 7.128 125.782 7.648 126.214 8.224C126.662 8.784 127.006 9.36 127.246 9.952C127.486 10.528 127.606 11.056 127.606 11.536C127.606 12.16 127.422 12.848 127.054 13.6C126.686 14.336 126.158 15.032 125.47 15.688C124.798 16.344 123.99 16.888 123.046 17.32C122.102 17.736 121.054 17.944 119.902 17.944ZM120.862 15.64C121.998 15.64 123.038 15.312 123.982 14.656C124.942 14 125.798 12.952 126.549 11.512C125.798 10.04 124.942 8.984 123.982 8.344C123.038 7.688 121.998 7.36 120.862 7.36C119.934 7.36 119.142 7.536 118.486 7.888C117.83 8.24 117.326 8.728 116.974 9.352C116.638 9.976 116.47 10.696 116.47 11.512C116.47 12.312 116.638 13.024 116.974 13.648C117.326 14.272 117.83 14.76 118.486 15.112C119.142 15.464 119.934 15.64 120.862 15.64Z" fill="white"/>
</svg>
