<svg width="185" height="33" viewBox="0 0 185 33" fill="none" xmlns="http://www.w3.org/2000/svg">
<path d="M0.792 8.44L4.088 9.08L7.352 8.44V27H0.792V8.44ZM4.056 6.936C2.92533 6.936 2.008 6.65867 1.304 6.104C0.6 5.528 0.248 4.74933 0.248 3.768C0.248 2.808 0.6 2.04 1.304 1.464C2.008 0.887999 2.92533 0.599998 4.056 0.599998C5.22933 0.599998 6.15733 0.887999 6.84 1.464C7.544 2.04 7.896 2.808 7.896 3.768C7.896 4.74933 7.544 5.528 6.84 6.104C6.15733 6.65867 5.22933 6.936 4.056 6.936Z" fill="white"/>
<path d="M22.6603 23.896L20.4203 23.864L26.7563 8.728H33.7323L25.1883 27H17.7323L9.18825 8.728H16.4203L22.6603 23.896ZM45.1683 27.512C42.9496 27.512 40.9656 27.1067 39.2163 26.296C37.4883 25.4853 36.1229 24.3547 35.1203 22.904C34.1176 21.432 33.6163 19.7253 33.6163 17.784C33.6163 15.8853 34.0963 14.2213 35.0563 12.792C36.0163 11.3413 37.3283 10.2107 38.9923 9.4C40.6776 8.58933 42.5763 8.184 44.6883 8.184C46.8856 8.184 48.7523 8.664 50.2882 9.624C51.8456 10.5627 53.0403 11.896 53.8723 13.624C54.7256 15.352 55.1523 17.3893 55.1523 19.736H38.8963V15.8H51.4722L49.3283 17.176C49.2429 16.2373 49.0083 15.448 48.6243 14.808C48.2403 14.1467 47.7283 13.6453 47.0883 13.304C46.4696 12.9627 45.7229 12.792 44.8483 12.792C43.8883 12.792 43.0669 12.984 42.3843 13.368C41.7016 13.752 41.1683 14.2853 40.7843 14.968C40.4003 15.6293 40.2083 16.408 40.2083 17.304C40.2083 18.456 40.4643 19.4373 40.9763 20.248C41.5096 21.0373 42.2776 21.6453 43.2803 22.072C44.3043 22.4987 45.5523 22.712 47.0243 22.712C48.3683 22.712 49.7016 22.5413 51.0243 22.2C52.3683 21.8373 53.5843 21.336 54.6723 20.696V24.856C53.4136 25.7093 51.9736 26.3707 50.3523 26.84C48.7523 27.288 47.0243 27.512 45.1683 27.512ZM56.9905 8.728H63.5505L64.7345 16.024V27H58.2065V15.032L56.9905 8.728ZM71.4545 8.184C73.2038 8.184 74.6972 8.536 75.9345 9.24C77.1718 9.944 78.1105 10.936 78.7505 12.216C79.4118 13.496 79.7425 15.0107 79.7425 16.76V27H73.2145V17.72C73.2145 16.3547 72.8625 15.3093 72.1585 14.584C71.4758 13.8587 70.4838 13.496 69.1825 13.496C68.2865 13.496 67.4972 13.688 66.8145 14.072C66.1532 14.456 65.6412 15 65.2785 15.704C64.9158 16.408 64.7345 17.24 64.7345 18.2L62.7185 17.144C62.9745 15.2027 63.5185 13.5707 64.3505 12.248C65.1825 10.904 66.2065 9.89067 67.4225 9.208C68.6385 8.52533 69.9825 8.184 71.4545 8.184ZM81.2233 13.56V10.712L84.9353 9.208L87.7513 3.8H91.4633V8.728H99.1433V13.56H91.4633V18.936C91.4633 20.2587 91.7299 21.1867 92.2633 21.72C92.7966 22.2533 93.7673 22.52 95.1753 22.52C96.0713 22.52 96.8606 22.4453 97.5433 22.296C98.2473 22.1253 98.8873 21.912 99.4633 21.656V26.584C98.8233 26.8187 97.9806 27.032 96.9353 27.224C95.8899 27.416 94.8126 27.512 93.7033 27.512C91.6766 27.512 90.0126 27.2027 88.7113 26.584C87.4313 25.9653 86.4819 25.08 85.8633 23.928C85.2446 22.7547 84.9353 21.3893 84.9353 19.832V13.56H81.2233ZM112.422 27.512C110.075 27.512 108.027 27.1173 106.278 26.328C104.529 25.5173 103.163 24.3867 102.182 22.936C101.201 21.464 100.71 19.7787 100.71 17.88C100.71 15.9387 101.201 14.2427 102.182 12.792C103.163 11.3413 104.529 10.2107 106.278 9.4C108.027 8.58933 110.075 8.184 112.422 8.184C114.747 8.184 116.785 8.58933 118.534 9.4C120.305 10.2107 121.681 11.3413 122.662 12.792C123.643 14.2427 124.134 15.9387 124.134 17.88C124.134 19.7787 123.643 21.464 122.662 22.936C121.681 24.3867 120.305 25.5173 118.534 26.328C116.785 27.1173 114.747 27.512 112.422 27.512ZM112.422 22.68C113.489 22.68 114.395 22.488 115.142 22.104C115.91 21.72 116.497 21.1653 116.902 20.44C117.307 19.7147 117.51 18.8613 117.51 17.88C117.51 16.856 117.307 15.992 116.902 15.288C116.497 14.5627 115.91 14.008 115.142 13.624C114.395 13.24 113.489 13.048 112.422 13.048C111.355 13.048 110.438 13.24 109.67 13.624C108.902 14.008 108.315 14.5627 107.91 15.288C107.505 15.992 107.302 16.8453 107.302 17.848C107.302 18.8507 107.505 19.7147 107.91 20.44C108.315 21.1653 108.902 21.72 109.67 22.104C110.438 22.488 111.355 22.68 112.422 22.68ZM126.886 2.36H133.446V27H126.886V2.36ZM147.922 27.512C145.575 27.512 143.527 27.1173 141.778 26.328C140.029 25.5173 138.663 24.3867 137.682 22.936C136.701 21.464 136.21 19.7787 136.21 17.88C136.21 15.9387 136.701 14.2427 137.682 12.792C138.663 11.3413 140.029 10.2107 141.778 9.4C143.527 8.58933 145.575 8.184 147.922 8.184C150.247 8.184 152.285 8.58933 154.034 9.4C155.805 10.2107 157.181 11.3413 158.162 12.792C159.143 14.2427 159.634 15.9387 159.634 17.88C159.634 19.7787 159.143 21.464 158.162 22.936C157.181 24.3867 155.805 25.5173 154.034 26.328C152.285 27.1173 150.247 27.512 147.922 27.512ZM147.922 22.68C148.989 22.68 149.895 22.488 150.642 22.104C151.41 21.72 151.997 21.1653 152.402 20.44C152.807 19.7147 153.01 18.8613 153.01 17.88C153.01 16.856 152.807 15.992 152.402 15.288C151.997 14.5627 151.41 14.008 150.642 13.624C149.895 13.24 148.989 13.048 147.922 13.048C146.855 13.048 145.938 13.24 145.17 13.624C144.402 14.008 143.815 14.5627 143.41 15.288C143.005 15.992 142.802 16.8453 142.802 17.848C142.802 18.8507 143.005 19.7147 143.41 20.44C143.815 21.1653 144.402 21.72 145.17 22.104C145.938 22.488 146.855 22.68 147.922 22.68ZM178.354 22.392V19.288L178.578 18.52V14.04L178.354 13.368V8.728H184.882V22.136C184.882 24.376 184.359 26.296 183.314 27.896C182.268 29.496 180.807 30.712 178.93 31.544C177.074 32.376 174.876 32.792 172.338 32.792C170.652 32.792 169.084 32.568 167.634 32.12C166.204 31.6933 164.775 31.0533 163.346 30.2V25.272C164.668 26.2533 166.055 26.9573 167.506 27.384C168.978 27.832 170.45 28.056 171.922 28.056C174.012 28.056 175.602 27.608 176.69 26.712C177.799 25.816 178.354 24.376 178.354 22.392ZM170.514 25.08C168.786 25.08 167.25 24.728 165.906 24.024C164.562 23.32 163.495 22.3387 162.706 21.08C161.938 19.8 161.554 18.3173 161.554 16.632C161.554 14.9253 161.938 13.4427 162.706 12.184C163.495 10.9253 164.562 9.944 165.906 9.24C167.25 8.536 168.786 8.184 170.514 8.184C171.794 8.184 172.967 8.38667 174.034 8.792C175.1 9.176 176.05 9.69867 176.882 10.36C177.714 11 178.407 11.704 178.962 12.472C179.538 13.2187 179.975 13.9653 180.274 14.712C180.572 15.4587 180.722 16.12 180.722 16.696C180.722 17.4853 180.487 18.36 180.018 19.32C179.57 20.28 178.908 21.1973 178.034 22.072C177.159 22.9467 176.082 23.672 174.802 24.248C173.543 24.8027 172.114 25.08 170.514 25.08ZM172.722 20.632C173.98 20.632 175.1 20.3013 176.082 19.64C177.063 18.9787 177.895 17.976 178.578 16.632C177.874 15.2667 177.031 14.264 176.05 13.624C175.068 12.9627 173.959 12.632 172.722 12.632C171.783 12.632 170.962 12.792 170.258 13.112C169.575 13.432 169.052 13.9013 168.69 14.52C168.327 15.1173 168.146 15.8213 168.146 16.632C168.146 17.4213 168.327 18.1253 168.69 18.744C169.052 19.3413 169.575 19.8107 170.258 20.152C170.94 20.472 171.762 20.632 172.722 20.632Z" fill="#1E90FF"/>
</svg>
